<svg>

  <symbol id="libraries" xmlns="http://www.w3.org/2000/svg" height="100%" width="100%" viewBox="0 0 448 512">
    <path d="M96 0C43 0 0 43 0 96V416c0 53 43 96 96 96H384h32c17.7 0 32-14.3 32-32s-14.3-32-32-32V384c17.7 0 32-14.3 32-32V32c0-17.7-14.3-32-32-32H384 96zm0 384H352v64H96c-17.7 0-32-14.3-32-32s14.3-32 32-32zm32-240c0-8.8 7.2-16 16-16H336c8.8 0 16 7.2 16 16s-7.2 16-16 16H144c-8.8 0-16-7.2-16-16zm16 48H336c8.8 0 16 7.2 16 16s-7.2 16-16 16H144c-8.8 0-16-7.2-16-16s7.2-16 16-16z"/>
  </symbol>

  <symbol id="icons" xmlns="http://www.w3.org/2000/svg" height="100%" width="100%" viewBox="0 0 512 512">
    <path d="M500.3 7.3C507.7 13.3 512 22.4 512 32V176c0 26.5-28.7 48-64 48s-64-21.5-64-48s28.7-48 64-48V71L352 90.2V208c0 26.5-28.7 48-64 48s-64-21.5-64-48s28.7-48 64-48V64c0-15.3 10.8-28.4 25.7-31.4l160-32c9.4-1.9 19.1 .6 26.6 6.6zM74.7 304l11.8-17.8c5.9-8.9 15.9-14.2 26.6-14.2h61.7c10.7 0 20.7 5.3 26.6 14.2L213.3 304H240c26.5 0 48 21.5 48 48V464c0 26.5-21.5 48-48 48H48c-26.5 0-48-21.5-48-48V352c0-26.5 21.5-48 48-48H74.7zM192 408a48 48 0 1 0 -96 0 48 48 0 1 0 96 0zM478.7 278.3L440.3 368H496c6.7 0 12.6 4.1 15 10.4s.6 13.3-4.4 17.7l-128 112c-5.6 4.9-13.9 5.3-19.9 .9s-8.2-12.4-5.3-19.2L391.7 400H336c-6.7 0-12.6-4.1-15-10.4s-.6-13.3 4.4-17.7l128-112c5.6-4.9 13.9-5.3 19.9-.9s8.2 12.4 5.3 19.2zm-339-59.2c-6.5 6.5-17 6.5-23 0L19.9 119.2c-28-29-26.5-76.9 5-103.9c27-23.5 68.4-19 93.4 6.5l10 10.5 9.5-10.5c25-25.5 65.9-30 93.9-6.5c31 27 32.5 74.9 4.5 103.9l-96.4 99.9z"/>
  </symbol>

  <symbol id="tools" xmlns="http://www.w3.org/2000/svg" height="100%" width="100%" viewBox="0 0 512 512">
    <path d="M78.6 5C69.1-2.4 55.6-1.5 47 7L7 47c-8.5 8.5-9.4 22-2.1 31.6l80 104c4.5 5.9 11.6 9.4 19 9.4h54.1l109 109c-14.7 29-10 65.4 14.3 89.6l112 112c12.5 12.5 32.8 12.5 45.3 0l64-64c12.5-12.5 12.5-32.8 0-45.3l-112-112c-24.2-24.2-60.6-29-89.6-14.3l-109-109V104c0-7.5-3.5-14.5-9.4-19L78.6 5zM19.9 396.1C7.2 408.8 0 426.1 0 444.1C0 481.6 30.4 512 67.9 512c18 0 35.3-7.2 48-19.9L233.7 374.3c-7.8-20.9-9-43.6-3.6-65.1l-61.7-61.7L19.9 396.1zM512 144c0-10.5-1.1-20.7-3.2-30.5c-2.4-11.2-16.1-14.1-24.2-6l-63.9 63.9c-3 3-7.1 4.7-11.3 4.7H352c-8.8 0-16-7.2-16-16V102.6c0-4.2 1.7-8.3 4.7-11.3l63.9-63.9c8.1-8.1 5.2-21.8-6-24.2C388.7 1.1 378.5 0 368 0C288.5 0 224 64.5 224 144l0 .8 85.3 85.3c36-9.1 75.8 .5 104 28.7L429 274.5c49-23 83-72.8 83-130.5zM56 432a24 24 0 1 1 48 0 24 24 0 1 1 -48 0z"/>
  </symbol>

  <symbol id="colors" xmlns="http://www.w3.org/2000/svg" height="100%" width="100%" viewBox="0 0 512 512">
    <path d="M512 256c0 .9 0 1.8 0 2.7c-.4 36.5-33.6 61.3-70.1 61.3H344c-26.5 0-48 21.5-48 48c0 3.4 .4 6.7 1 9.9c2.1 10.2 6.5 20 10.8 29.9c6.1 13.8 12.1 27.5 12.1 42c0 31.8-21.6 60.7-53.4 62c-3.5 .1-7 .2-10.6 .2C114.6 512 0 397.4 0 256S114.6 0 256 0S512 114.6 512 256zM128 288a32 32 0 1 0 -64 0 32 32 0 1 0 64 0zm0-96a32 32 0 1 0 0-64 32 32 0 1 0 0 64zM288 96a32 32 0 1 0 -64 0 32 32 0 1 0 64 0zm96 96a32 32 0 1 0 0-64 32 32 0 1 0 0 64z"/>
  </symbol>

  <symbol id="gradients" xmlns="http://www.w3.org/2000/svg" height="100%" width="100%" viewBox="0 0 384 512">
    <path d="M162.4 6c-1.5-3.6-5-6-8.9-6h-19c-3.9 0-7.5 2.4-8.9 6L104.9 57.7c-3.2 8-14.6 8-17.8 0L66.4 6c-1.5-3.6-5-6-8.9-6H48C21.5 0 0 21.5 0 48V224v22.4V256H9.6 374.4 384v-9.6V224 48c0-26.5-21.5-48-48-48H230.5c-3.9 0-7.5 2.4-8.9 6L200.9 57.7c-3.2 8-14.6 8-17.8 0L162.4 6zM0 288v32c0 35.3 28.7 64 64 64h64v64c0 35.3 28.7 64 64 64s64-28.7 64-64V384h64c35.3 0 64-28.7 64-64V288H0zM192 432a16 16 0 1 1 0 32 16 16 0 1 1 0-32z"/>
  </symbol>

  <symbol id="typography" xmlns="http://www.w3.org/2000/svg" height="100%" width="100%" viewBox="0 0 448 512">
    <path d="M254 52.8C249.3 40.3 237.3 32 224 32s-25.3 8.3-30 20.8L57.8 416H32c-17.7 0-32 14.3-32 32s14.3 32 32 32h96c17.7 0 32-14.3 32-32s-14.3-32-32-32h-1.8l18-48H303.8l18 48H320c-17.7 0-32 14.3-32 32s14.3 32 32 32h96c17.7 0 32-14.3 32-32s-14.3-32-32-32H390.2L254 52.8zM279.8 304H168.2L224 155.1 279.8 304z"/>
  </symbol>

  <symbol id="illustrations" xmlns="http://www.w3.org/2000/svg" height="100%" width="100%" viewBox="0 0 576 512">
    <path d="M234.7 42.7L197 56.8c-3 1.1-5 4-5 7.2s2 6.1 5 7.2l37.7 14.1L248.8 123c1.1 3 4 5 7.2 5s6.1-2 7.2-5l14.1-37.7L315 71.2c3-1.1 5-4 5-7.2s-2-6.1-5-7.2L277.3 42.7 263.2 5c-1.1-3-4-5-7.2-5s-6.1 2-7.2 5L234.7 42.7zM46.1 395.4c-18.7 18.7-18.7 49.1 0 67.9l34.6 34.6c18.7 18.7 49.1 18.7 67.9 0L529.9 116.5c18.7-18.7 18.7-49.1 0-67.9L495.3 14.1c-18.7-18.7-49.1-18.7-67.9 0L46.1 395.4zM484.6 82.6l-105 105-23.3-23.3 105-105 23.3 23.3zM7.5 117.2C3 118.9 0 123.2 0 128s3 9.1 7.5 10.8L64 160l21.2 56.5c1.7 4.5 6 7.5 10.8 7.5s9.1-3 10.8-7.5L128 160l56.5-21.2c4.5-1.7 7.5-6 7.5-10.8s-3-9.1-7.5-10.8L128 96 106.8 39.5C105.1 35 100.8 32 96 32s-9.1 3-10.8 7.5L64 96 7.5 117.2zm352 256c-4.5 1.7-7.5 6-7.5 10.8s3 9.1 7.5 10.8L416 416l21.2 56.5c1.7 4.5 6 7.5 10.8 7.5s9.1-3 10.8-7.5L480 416l56.5-21.2c4.5-1.7 7.5-6 7.5-10.8s-3-9.1-7.5-10.8L480 352l-21.2-56.5c-1.7-4.5-6-7.5-10.8-7.5s-9.1 3-10.8 7.5L416 352l-56.5 21.2z"/>
  </symbol>

  <symbol id="images" xmlns="http://www.w3.org/2000/svg" height="100%" width="100%" viewBox="0 0 512 512">
    <path d="M0 96C0 60.7 28.7 32 64 32H448c35.3 0 64 28.7 64 64V416c0 35.3-28.7 64-64 64H64c-35.3 0-64-28.7-64-64V96zM323.8 202.5c-4.5-6.6-11.9-10.5-19.8-10.5s-15.4 3.9-19.8 10.5l-87 127.6L170.7 297c-4.6-5.7-11.5-9-18.7-9s-14.2 3.3-18.7 9l-64 80c-5.8 7.2-6.9 17.1-2.9 25.4s12.4 13.6 21.6 13.6h96 32H424c8.9 0 17.1-4.9 21.2-12.8s3.6-17.4-1.4-24.7l-120-176zM112 192a48 48 0 1 0 0-96 48 48 0 1 0 0 96z"/>
  </symbol>

  <symbol id="draw" xmlns="http://www.w3.org/2000/svg" height="100%" width="100%" viewBox="0 0 512 512">
    <path d="M362.7 19.3L314.3 67.7 444.3 197.7l48.4-48.4c25-25 25-65.5 0-90.5L453.3 19.3c-25-25-65.5-25-90.5 0zm-71 71L58.6 323.5c-10.4 10.4-18 23.3-22.2 37.4L1 481.2C-1.5 489.7 .8 498.8 7 505s15.3 8.5 23.7 6.1l120.3-35.4c14.1-4.2 27-11.8 37.4-22.2L421.7 220.3 291.7 90.3z"/>
  </symbol>

  <symbol id="github" xmlns="http://www.w3.org/2000/svg" height="100%" width="100%" viewBox="0 0 496 512">
    <path d="M165.9 397.4c0 2-2.3 3.6-5.2 3.6-3.3.3-5.6-1.3-5.6-3.6 0-2 2.3-3.6 5.2-3.6 3-.3 5.6 1.3 5.6 3.6zm-31.1-4.5c-.7 2 1.3 4.3 4.3 4.9 2.6 1 5.6 0 6.2-2s-1.3-4.3-4.3-5.2c-2.6-.7-5.5.3-6.2 2.3zm44.2-1.7c-2.9.7-4.9 2.6-4.6 4.9.3 2 2.9 3.3 5.9 2.6 2.9-.7 4.9-2.6 4.6-4.6-.3-1.9-3-3.2-5.9-2.9zM244.8 8C106.1 8 0 113.3 0 252c0 110.9 69.8 205.8 169.5 239.2 12.8 2.3 17.3-5.6 17.3-12.1 0-6.2-.3-40.4-.3-61.4 0 0-70 15-84.7-29.8 0 0-11.4-29.1-27.8-36.6 0 0-22.9-15.7 1.6-15.4 0 0 24.9 2 38.6 25.8 21.9 38.6 58.6 27.5 72.9 20.9 2.3-16 8.8-27.1 16-33.7-55.9-6.2-112.3-14.3-112.3-110.5 0-27.5 7.6-41.3 23.6-58.9-2.6-6.5-11.1-33.3 2.6-67.9 20.9-6.5 69 27 69 27 20-5.6 41.5-8.5 62.8-8.5s42.8 2.9 62.8 8.5c0 0 48.1-33.6 69-27 13.7 34.7 5.2 61.4 2.6 67.9 16 17.7 25.8 31.5 25.8 58.9 0 96.5-58.9 104.2-114.8 110.5 9.2 7.9 17 22.9 17 46.4 0 33.7-.3 75.4-.3 83.6 0 6.5 4.6 14.4 17.3 12.1C428.2 457.8 496 362.9 496 252 496 113.3 383.5 8 244.8 8zM97.2 352.9c-1.3 1-1 3.3.7 5.2 1.6 1.6 3.9 2.3 5.2 1 1.3-1 1-3.3-.7-5.2-1.6-1.6-3.9-2.3-5.2-1zm-10.8-8.1c-.7 1.3.3 2.9 2.3 3.9 1.6 1 3.6.7 4.3-.7.7-1.3-.3-2.9-2.3-3.9-2-.6-3.6-.3-4.3.7zm32.4 35.6c-1.6 1.3-1 4.3 1.3 6.2 2.3 2.3 5.2 2.6 6.5 1 1.3-1.3.7-4.3-1.3-6.2-2.2-2.3-5.2-2.6-6.5-1zm-11.4-14.7c-1.6 1-1.6 3.6 0 5.9 1.6 2.3 4.3 3.3 5.6 2.3 1.6-1.3 1.6-3.9 0-6.2-1.4-2.3-4-3.3-5.6-2z"/>
  </symbol>

    
</svg>